<?xml version="1.0" standalone="no"?>
<!DOCTYPE svg PUBLIC "-//W3C//DTD SVG 20010904//EN"
 "http://www.w3.org/TR/2001/REC-SVG-20010904/DTD/svg10.dtd">
<svg version="1.0" xmlns="http://www.w3.org/2000/svg"
 width="100.000000pt" height="41.000000pt" viewBox="0 0 100.000000 41.000000"
 preserveAspectRatio="xMidYMid meet">
<metadata>
Created by potrace 1.16, written by Peter Selinger 2001-2019
</metadata>
<g transform="translate(0.000000,41.000000) scale(0.100000,-0.100000)"
fill="#000000" stroke="none">
<path d="M25 385 c-30 -29 -34 -61 -7 -49 9 4 40 9 67 12 l50 4 -27 -27 c-16
-14 -28 -35 -28 -46 0 -11 -10 -23 -24 -29 -27 -10 -40 -40 -31 -70 8 -24 21
-26 29 -5 10 26 26 16 26 -17 0 -17 -8 -40 -17 -50 -13 -15 -14 -21 -5 -27 9
-5 6 -11 -11 -20 -25 -13 -52 -50 -43 -58 3 -3 21 2 41 11 28 14 42 15 72 7
32 -9 40 -8 60 11 20 18 23 32 23 90 l0 68 30 0 c30 0 30 -1 30 -54 0 -39 -4
-55 -15 -60 -18 -6 -20 -26 -3 -26 6 0 22 -9 34 -21 l22 -21 36 28 c37 30 50
61 20 50 -14 -5 -15 11 -12 148 l3 154 -33 12 c-29 10 -35 9 -62 -12 -32 -26
-39 -50 -12 -46 14 2 18 -5 20 -39 3 -42 2 -43 -27 -43 l-31 0 0 60 c0 33 -4
60 -10 60 -5 0 -7 7 -4 15 5 12 -6 15 -65 15 -63 0 -75 -3 -96 -25z"/>
<path d="M425 385 c-14 -13 -25 -31 -25 -40 0 -17 16 -20 25 -5 3 6 29 10 58
10 l52 0 -28 -25 c-15 -14 -27 -35 -27 -46 0 -11 -10 -23 -24 -28 -24 -10 -36
-29 -36 -61 0 -26 21 -36 32 -16 5 9 13 16 18 16 17 0 11 -62 -7 -82 -13 -15
-14 -21 -5 -27 9 -5 4 -12 -14 -21 -27 -15 -50 -48 -40 -57 3 -4 21 2 39 12
29 15 39 16 71 5 35 -11 40 -10 59 9 19 18 21 31 18 91 l-3 70 31 0 c31 0 31
0 31 -54 0 -30 -4 -58 -10 -61 -14 -9 -13 -25 2 -25 6 0 22 -10 34 -21 l23
-22 35 29 c36 30 48 61 20 50 -14 -5 -15 12 -12 149 2 120 0 155 -10 155 -7 0
-21 5 -31 12 -15 9 -24 7 -49 -13 -32 -25 -43 -56 -17 -45 12 4 15 -4 15 -39
0 -43 -1 -45 -30 -45 -30 0 -30 0 -30 59 0 38 -4 61 -12 64 -10 4 -10 6 0 6 6
1 12 6 12 11 0 6 -30 10 -70 10 -62 0 -74 -3 -95 -25z"/>
</g>
</svg>
