<?xml version="1.0" standalone="no"?>
<!DOCTYPE svg PUBLIC "-//W3C//DTD SVG 20010904//EN"
 "http://www.w3.org/TR/2001/REC-SVG-20010904/DTD/svg10.dtd">
<svg version="1.0" xmlns="http://www.w3.org/2000/svg"
 width="183.000000pt" height="98.000000pt" viewBox="0 0 183.000000 98.000000"
 preserveAspectRatio="xMidYMid meet">
<metadata>
Created by potrace 1.16, written by Peter Selinger 2001-2019
</metadata>
<g transform="translate(0.000000,98.000000) scale(0.100000,-0.100000)"
fill="#000000" stroke="none">
<path d="M380 970 c-14 -4 -70 -5 -125 -2 -87 4 -106 2 -140 -16 -48 -24 -66
-43 -94 -100 -18 -36 -19 -43 -7 -48 9 -3 29 4 46 16 27 20 43 22 138 21 105
-1 109 -1 155 30 26 17 61 48 78 70 l31 39 -29 -1 c-15 -1 -39 -4 -53 -9z"/>
<path d="M613 922 c-54 -42 -73 -63 -73 -81 0 -23 1 -23 26 -6 44 29 54 9 54
-116 l0 -109 -80 0 -80 0 0 150 0 150 -23 0 c-15 0 -38 -15 -61 -40 -20 -22
-61 -58 -90 -80 -60 -45 -86 -89 -86 -144 0 -32 -3 -36 -40 -47 -58 -18 -92
-58 -98 -117 -5 -53 9 -92 33 -92 8 0 15 8 15 18 0 26 32 52 63 52 27 0 27 0
27 -77 0 -81 -21 -136 -55 -149 -8 -4 -15 -15 -15 -25 0 -45 141 -2 193 60 40
48 47 90 47 296 0 180 9 257 30 270 6 4 10 -115 10 -324 l0 -329 -37 10 c-50
14 -148 4 -203 -20 -70 -31 -170 -128 -170 -167 0 -14 45 -3 73 19 67 50 160
60 235 26 l44 -20 64 57 c62 54 75 73 54 73 -6 0 -10 57 -10 150 l0 150 80 0
80 0 0 -129 0 -129 -35 -29 c-26 -20 -32 -32 -26 -42 8 -12 12 -12 25 -2 13
11 24 6 72 -38 30 -28 60 -51 65 -51 6 0 46 30 89 67 61 52 77 70 68 80 -9 11
-15 11 -33 -1 -42 -27 -45 -3 -45 354 0 319 1 330 20 340 11 6 20 17 20 26 0
20 -27 29 -45 14 -12 -10 -23 -5 -58 24 -24 20 -46 36 -48 36 -2 0 -37 -26
-76 -58z"/>
<path d="M1346 973 c-4 -5 -65 -8 -135 -8 -119 0 -130 -2 -164 -25 -33 -23
-87 -102 -87 -129 0 -17 29 -13 57 9 22 17 41 20 130 20 76 0 113 4 136 16 33
17 127 102 127 116 0 10 -54 10 -64 1z"/>
<path d="M1568 923 c-52 -42 -68 -62 -68 -81 0 -24 1 -25 20 -7 16 15 22 15
35 5 12 -10 15 -36 15 -121 l0 -109 -80 0 -80 0 0 150 c0 178 -3 182 -93 98
-30 -29 -78 -74 -106 -99 -41 -36 -51 -52 -51 -77 0 -52 -15 -79 -50 -86 -68
-13 -113 -100 -90 -172 14 -42 32 -44 47 -4 11 30 49 48 78 36 34 -13 13 -162
-29 -205 -32 -33 -34 -61 -5 -61 71 0 169 64 195 127 10 23 14 85 14 226 0
191 13 285 40 302 7 4 10 -114 10 -329 l0 -335 -32 10 c-81 23 -190 2 -271
-52 -44 -29 -117 -110 -117 -130 0 -18 41 -8 90 23 70 43 145 49 219 17 l53
-22 61 63 c38 38 57 64 50 67 -10 3 -13 44 -13 154 l0 149 80 0 80 0 0 -132 0
-132 -32 -27 c-26 -21 -30 -30 -21 -40 9 -9 16 -9 26 -1 11 9 26 1 70 -39 32
-28 61 -49 67 -47 28 10 150 123 150 139 0 23 -13 24 -30 4 -12 -14 -15 -14
-31 1 -18 16 -19 38 -19 343 l0 325 25 26 c22 23 24 29 11 39 -11 9 -20 9 -34
2 -16 -9 -28 -4 -63 24 -24 19 -46 35 -49 34 -3 0 -35 -25 -72 -56z"/>
</g>
</svg>
