<?xml version="1.0" standalone="no"?>
<!DOCTYPE svg PUBLIC "-//W3C//DTD SVG 20010904//EN"
 "http://www.w3.org/TR/2001/REC-SVG-20010904/DTD/svg10.dtd">
<svg version="1.0" xmlns="http://www.w3.org/2000/svg"
 width="300.000000pt" height="25.000000pt" viewBox="0 0 300.000000 25.000000"
 preserveAspectRatio="xMidYMid meet">
<metadata>
Created by potrace 1.10, written by Peter Selinger 2001-2011
</metadata>
<g transform="translate(0.000000,25.000000) scale(0.100000,-0.100000)"
fill="#000000" stroke="none">
<path d="M2920 240 c-26 -4 -31 -7 -17 -12 10 -4 17 -18 17 -33 0 -21 -4 -24
-23 -20 -32 9 -77 -29 -77 -64 0 -14 7 -36 15 -48 13 -19 25 -22 85 -22 39 0
70 4 70 9 0 6 -7 10 -15 10 -11 0 -15 19 -17 93 l-3 92 -35 -5z m-5 -130 c0
-38 -3 -45 -20 -45 -15 0 -21 8 -23 33 -4 45 4 64 25 60 14 -3 18 -13 18 -48z"/>
<path d="M198 233 c16 -6 17 -164 0 -181 -9 -9 -2 -12 32 -12 34 0 41 3 32 12
-29 29 -4 123 28 103 15 -9 13 -102 -2 -108 -7 -3 10 -6 37 -6 39 0 46 2 33
10 -13 7 -18 23 -18 58 0 60 -18 80 -56 62 -35 -15 -34 -16 -34 29 0 39 -1 40
-32 39 -18 0 -27 -3 -20 -6z"/>
<path d="M1233 229 c9 -5 17 -21 17 -35 0 -20 -4 -23 -23 -19 -32 9 -77 -29
-77 -64 0 -14 7 -36 15 -48 13 -18 25 -22 80 -22 35 0 67 4 70 10 4 5 -1 9 -9
9 -13 0 -16 15 -16 90 l0 90 -37 0 c-31 -1 -35 -3 -20 -11z m15 -122 c3 -46 2
-48 -20 -45 -18 2 -24 10 -26 36 -4 45 4 64 25 60 14 -2 19 -15 21 -51z"/>
<path d="M2728 233 c8 -3 12 -32 12 -95 0 -87 -1 -89 -22 -86 -20 3 -23 9 -23
52 -1 67 -30 89 -89 66 -31 -11 -35 -40 -6 -40 14 0 20 7 20 21 0 26 24 20 28
-8 2 -14 -4 -22 -20 -26 -40 -10 -61 -32 -54 -54 6 -19 14 -21 124 -21 64 0
111 2 105 5 -9 3 -13 33 -13 99 l0 94 -37 -1 c-21 0 -32 -3 -25 -6z m-78 -148
c0 -16 -6 -25 -15 -25 -28 0 -18 40 13 49 1 1 2 -10 2 -24z"/>
<path d="M10 198 c1 -30 2 -31 12 -13 12 21 28 35 41 35 4 0 7 -36 7 -80 0
-64 -3 -80 -15 -80 -8 0 -15 -4 -15 -10 0 -5 25 -10 55 -10 30 0 55 5 55 10 0
6 -7 10 -15 10 -12 0 -15 16 -15 80 0 44 4 80 9 80 12 0 38 -25 44 -42 8 -23
18 -1 11 26 -6 25 -8 26 -90 26 l-84 0 0 -32z"/>
<path d="M603 216 c25 -19 25 -143 0 -162 -16 -12 -10 -13 42 -13 52 0 58 1
43 13 -11 8 -18 26 -18 45 0 30 2 31 40 31 39 0 40 -1 40 -35 0 -24 -5 -35
-15 -35 -8 0 -15 -4 -15 -10 0 -5 23 -10 50 -10 28 0 50 5 50 10 0 6 -7 10
-15 10 -12 0 -15 15 -15 75 0 60 3 75 15 75 8 0 15 5 15 10 0 6 -22 10 -50 10
-27 0 -50 -4 -50 -10 0 -5 7 -10 15 -10 10 0 15 -10 15 -32 0 -32 -2 -33 -40
-33 -37 0 -40 2 -40 29 0 16 8 35 18 42 15 12 9 13 -43 13 -52 0 -58 -1 -42
-13z"/>
<path d="M2044 215 c15 -11 18 -27 18 -82 0 -40 -4 -69 -11 -71 -28 -9 -6 -22
39 -22 28 0 50 5 50 10 0 6 -7 10 -15 10 -10 0 -15 11 -15 35 0 34 1 35 40 35
39 0 40 -1 40 -35 0 -24 -5 -35 -15 -35 -8 0 -15 -4 -15 -10 0 -5 23 -10 50
-10 45 0 67 13 39 22 -16 5 -17 148 -1 148 6 0 12 5 12 10 0 6 -22 10 -50 10
-27 0 -50 -4 -50 -10 0 -5 7 -10 15 -10 10 0 15 -10 15 -32 0 -32 -2 -33 -40
-33 -38 0 -40 1 -40 33 0 22 5 32 15 32 8 0 15 5 15 10 0 6 -26 10 -57 10 -52
-1 -56 -2 -39 -15z"/>
<path d="M1480 191 c0 -11 -8 -22 -17 -24 -16 -4 -16 -5 -1 -6 14 -1 18 -13
20 -58 3 -56 4 -58 32 -61 16 -2 33 1 39 7 8 8 5 11 -11 11 -20 0 -22 5 -22
49 0 43 3 50 23 54 l22 4 -22 2 c-16 1 -23 7 -23 21 0 13 -7 20 -20 20 -13 0
-20 -7 -20 -19z"/>
<path d="M1880 190 c0 -11 -6 -20 -12 -20 -10 0 -10 -2 -1 -8 6 -4 13 -32 15
-62 l3 -55 38 -3 c39 -3 51 12 17 21 -16 4 -20 14 -20 50 0 39 3 46 23 50 l22
4 -22 2 c-16 1 -23 7 -23 21 0 13 -7 20 -20 20 -13 0 -20 -7 -20 -20z"/>
<path d="M406 159 c-32 -25 -36 -77 -8 -102 26 -24 85 -22 107 3 10 11 13 20
7 20 -6 0 -14 -4 -17 -10 -11 -17 -54 -11 -65 9 -15 30 -14 31 35 31 38 0 45
3 45 19 0 22 -35 51 -61 51 -9 0 -28 -9 -43 -21z m60 -28 c-7 -11 -46 -16 -46
-5 0 3 5 15 11 26 10 18 13 19 26 5 9 -8 12 -20 9 -26z"/>
<path d="M865 155 c-48 -47 -19 -115 48 -115 21 0 41 8 52 20 19 20 8 29 -12
9 -18 -18 -58 -7 -61 19 -3 20 1 22 42 22 52 0 57 10 21 45 -31 32 -59 32 -90
0z m63 -13 c3 -17 -2 -22 -17 -22 -14 0 -21 6 -21 18 0 38 33 41 38 4z"/>
<path d="M1023 170 c-28 -11 -30 -40 -4 -40 11 0 21 9 24 21 6 24 27 17 27
-10 0 -10 -13 -22 -36 -30 -19 -7 -38 -19 -41 -27 -11 -29 16 -42 85 -42 45 0
62 2 51 9 -13 7 -15 19 -12 52 5 38 2 47 -18 61 -26 18 -43 19 -76 6z m49 -85
c-5 -29 -32 -34 -32 -6 0 17 11 28 31 30 3 1 4 -10 1 -24z"/>
<path d="M1352 164 c-35 -25 -28 -53 18 -71 43 -17 48 -36 12 -41 -13 -2 -26
5 -34 17 -17 28 -26 27 -21 -2 4 -18 12 -24 40 -25 44 -3 70 5 77 23 9 25 -5
45 -41 60 -19 8 -33 20 -31 27 7 21 26 20 47 -3 l21 -23 0 25 c0 20 -5 24 -33
26 -18 2 -43 -4 -55 -13z"/>
<path d="M1598 169 c-24 -14 -23 -39 2 -39 14 0 20 7 20 21 0 27 24 20 28 -8
2 -16 -4 -23 -27 -28 -37 -8 -55 -28 -47 -53 6 -18 17 -20 123 -21 99 -1 114
1 104 13 -7 8 -11 37 -10 65 2 28 1 53 -2 55 -2 2 -19 1 -37 -1 -28 -5 -30 -7
-17 -17 12 -8 15 -24 13 -56 -3 -40 -6 -45 -28 -45 -23 0 -25 4 -28 50 -4 68
-43 94 -94 64z m52 -84 c0 -15 -6 -25 -14 -25 -23 0 -28 17 -10 34 21 21 24
20 24 -9z"/>
<path d="M1814 172 c-15 -10 2 -55 18 -50 15 5 17 50 3 55 -5 1 -15 -1 -21 -5z"/>
<path d="M2306 157 c-48 -48 -21 -117 47 -117 33 1 76 25 64 37 -4 4 -13 1
-19 -5 -17 -17 -55 -15 -62 4 -11 29 -6 34 40 34 42 0 45 1 39 23 -10 31 -16
36 -52 43 -26 5 -37 1 -57 -19z m62 -15 c3 -17 -2 -22 -17 -22 -14 0 -21 6
-21 18 0 38 33 41 38 4z"/>
<path d="M2450 170 c-14 -4 -19 -8 -12 -9 17 -1 17 -107 0 -114 -7 -3 10 -6
37 -6 39 0 46 2 33 10 -20 11 -26 83 -8 94 9 5 -12 37 -22 34 -2 -1 -14 -5
-28 -9z"/>
<path d="M2517 173 c-3 -4 -1 -18 4 -30 11 -29 41 -20 37 11 -3 21 -32 34 -41
19z"/>
<path d="M742 13 c410 -2 1085 -2 1500 0 414 1 78 2 -747 2 -825 0 -1164 -1
-753 -2z"/>
</g>
</svg>
