<?xml version="1.0" standalone="no"?>
<!DOCTYPE svg PUBLIC "-//W3C//DTD SVG 20010904//EN"
 "http://www.w3.org/TR/2001/REC-SVG-20010904/DTD/svg10.dtd">
<svg version="1.0" xmlns="http://www.w3.org/2000/svg"
 width="300.000000pt" height="136.000000pt" viewBox="0 0 300.000000 136.000000"
 preserveAspectRatio="xMidYMid meet">
<metadata>
Created by potrace 1.10, written by Peter Selinger 2001-2011
</metadata>
<g transform="translate(0.000000,136.000000) scale(0.100000,-0.100000)"
fill="#000000" stroke="none">
<path d="M456 1338 c-2 -7 -9 -51 -15 -98 -6 -46 -15 -88 -21 -94 -21 -21
-213 -36 -224 -17 -4 5 1 42 9 82 17 80 13 109 -16 109 -10 0 -19 -2 -19 -5 0
-26 -42 -318 -49 -344 -11 -37 0 -71 24 -71 16 0 21 17 30 105 3 33 9 63 13
66 4 4 58 10 120 14 l112 7 0 -24 c0 -12 -5 -50 -10 -83 -8 -48 -7 -62 5 -74
28 -29 42 2 49 116 3 60 15 154 25 210 10 56 16 105 13 108 -10 10 -43 5 -46
-7z"/>
<path d="M1456 1328 c-3 -7 -7 -44 -11 -83 -3 -38 -9 -81 -12 -94 -6 -23 -7
-22 -17 10 -9 29 -16 34 -47 37 -34 3 -41 -2 -108 -77 -80 -89 -146 -130 -180
-112 -27 15 -33 41 -21 94 12 55 6 75 -26 83 -45 11 -78 -7 -159 -90 -89 -92
-153 -129 -211 -124 -68 6 -66 28 9 100 72 68 81 94 47 128 -25 25 -30 25 -70
-2 -44 -30 -73 -89 -78 -159 -4 -51 -2 -60 21 -83 47 -47 145 -28 219 41 l27
26 3 -43 c5 -75 57 -79 131 -11 l42 39 28 -24 c16 -13 34 -24 42 -24 26 0 70
21 98 48 l27 26 -6 -32 c-10 -50 2 -82 32 -82 56 0 127 53 186 140 l17 25 0
-43 c1 -32 7 -49 26 -68 31 -31 47 -24 121 48 l51 49 26 -40 c39 -58 35 -75
-20 -101 -69 -32 -84 -60 -33 -60 22 0 55 21 130 81 56 45 111 94 122 110 12
16 25 29 29 29 3 0 -2 -35 -12 -77 -23 -96 -23 -96 -1 -122 16 -20 19 -21 37
-7 16 13 18 17 6 25 -16 10 -11 80 10 151 13 43 15 44 108 55 l53 6 -20 -28
c-54 -76 -50 -173 7 -173 29 0 60 18 107 62 26 24 32 27 37 14 4 -9 19 -21 34
-27 36 -13 99 10 138 51 16 17 31 30 35 30 3 0 4 -30 2 -66 -3 -36 0 -70 5
-75 18 -18 40 2 56 54 19 60 54 112 94 139 34 22 73 24 73 3 0 -11 12 -15 46
-15 38 0 45 -3 40 -17 -16 -57 -27 -132 -24 -158 3 -31 24 -42 55 -31 14 6 14
8 -2 26 -16 18 -16 23 0 102 9 46 18 84 20 86 2 2 34 8 72 12 80 10 123 25
123 41 0 8 -14 9 -42 5 -115 -16 -148 -18 -148 -10 0 5 7 34 15 64 20 74 19
102 -1 98 -12 -2 -23 -29 -38 -88 -21 -85 -21 -85 -55 -88 -23 -2 -37 2 -43
12 -12 22 -66 20 -106 -4 -32 -20 -92 -102 -92 -127 0 -7 -4 -13 -10 -13 -5 0
-8 6 -6 13 14 46 27 139 22 153 -9 24 -32 1 -40 -41 -7 -37 -53 -80 -119 -111
-35 -17 -37 -17 -58 2 -19 17 -20 26 -14 82 8 71 -2 92 -42 92 -13 0 -36 -6
-51 -14 -31 -16 -200 -41 -210 -32 -3 4 2 39 12 77 13 52 15 74 7 82 -18 18
-29 -2 -49 -88 l-19 -80 -52 -3 c-42 -3 -52 -6 -49 -20 2 -9 14 -19 27 -22 22
-5 19 -8 -33 -50 -31 -25 -59 -44 -63 -44 -4 1 -20 26 -35 55 l-28 52 26 28
c26 27 29 59 7 66 -16 6 -63 -45 -63 -68 0 -34 -126 -136 -155 -125 -20 7 -20
117 0 223 20 103 19 113 -5 113 -11 0 -22 -6 -24 -12z m-758 -172 c4 -17 -75
-102 -85 -93 -2 3 3 22 12 43 28 67 65 93 73 50z m693 -36 c5 -38 2 -50 -18
-76 -28 -38 -92 -84 -116 -84 -38 0 -6 93 59 169 46 53 67 51 75 -9z m-371 -9
c0 -45 -31 -96 -79 -128 -46 -31 -61 -29 -61 7 0 61 73 160 117 160 20 0 23
-5 23 -39z m1197 -1 c-7 -55 -42 -107 -88 -131 -65 -33 -76 -7 -33 79 29 59
66 92 102 92 23 0 24 -3 19 -40z m-294 5 c-3 -9 -8 -14 -10 -11 -3 3 -2 9 2
15 9 16 15 13 8 -4z"/>
<path d="M676 468 c-2 -7 -8 -53 -14 -101 -5 -49 -14 -93 -19 -98 -12 -12
-189 -32 -213 -24 -16 5 -16 12 -2 91 14 78 14 86 -1 102 -11 10 -20 13 -26 7
-5 -6 -20 -82 -32 -170 -33 -243 -33 -230 -14 -245 23 -19 31 -3 39 82 3 39 9
74 11 78 3 5 36 11 73 15 37 3 89 8 116 12 l48 5 -7 -96 c-7 -92 -7 -96 13
-96 26 0 29 12 37 130 4 52 16 142 26 199 10 57 16 107 13 112 -8 13 -44 11
-48 -3z"/>
<path d="M1791 457 c-6 -8 -18 -63 -28 -123 -18 -119 -25 -133 -92 -176 -84
-53 -118 -33 -107 64 7 73 -2 88 -53 88 -99 0 -216 -196 -152 -254 26 -23 60
-13 115 35 l45 40 21 -21 c38 -38 111 -19 180 45 l25 24 1 -34 c1 -65 50 -106
109 -91 13 3 40 20 60 37 l35 31 0 -30 c0 -16 7 -35 15 -42 36 -30 143 37 194
121 l19 31 7 -41 c17 -100 64 -103 156 -11 74 73 82 112 10 47 -52 -46 -109
-79 -123 -71 -14 9 -9 157 8 244 16 84 11 106 -18 95 -12 -5 -18 -27 -23 -83
-3 -42 -9 -87 -12 -100 -5 -21 -6 -21 -22 10 -14 28 -21 33 -49 31 -38 -1 -70
-27 -115 -93 -92 -137 -180 -177 -207 -96 -12 37 -5 116 24 251 8 38 12 73 10
77 -8 12 -20 10 -33 -5z m336 -169 c6 -7 13 -30 16 -50 5 -31 1 -44 -21 -69
-32 -38 -100 -89 -119 -89 -35 0 0 98 64 178 37 45 45 49 60 30z m-599 -38 c6
-58 -76 -160 -129 -160 -44 0 -8 103 56 159 42 37 69 37 73 1z"/>
<path d="M850 301 c-38 -39 -60 -100 -60 -161 0 -44 47 -90 92 -90 48 1 110
32 166 84 l48 45 0 -72 c-1 -66 1 -72 20 -75 17 -2 23 5 33 40 30 103 90 168
155 168 29 0 36 4 36 19 0 24 -39 35 -77 20 -40 -15 -81 -57 -109 -111 -13
-27 -26 -48 -28 -48 -2 0 2 26 10 58 18 77 18 122 -1 122 -9 0 -19 -17 -26
-45 -13 -51 -74 -110 -150 -145 -55 -25 -81 -25 -110 -1 l-24 19 68 64 c71 67
84 100 51 132 -25 26 -55 19 -94 -23z m68 -25 c4 -16 -76 -101 -85 -92 -2 2 3
21 12 42 28 67 65 93 73 50z"/>
</g>
</svg>
