<?xml version="1.0" standalone="no"?>
<!DOCTYPE svg PUBLIC "-//W3C//DTD SVG 20010904//EN"
 "http://www.w3.org/TR/2001/REC-SVG-20010904/DTD/svg10.dtd">
<svg version="1.0" xmlns="http://www.w3.org/2000/svg"
 width="594.000000pt" height="59.000000pt" viewBox="0 0 594.000000 59.000000"
 preserveAspectRatio="xMidYMid meet">
<metadata>
Created by potrace 1.16, written by Peter Selinger 2001-2019
</metadata>
<g transform="translate(0.000000,59.000000) scale(0.100000,-0.100000)"
fill="#000000" stroke="none">
<path d="M295 580 c3 -5 15 -10 26 -10 10 0 19 -7 19 -15 0 -21 -41 -19 -118
5 -94 30 -147 27 -183 -9 -34 -35 -38 -77 -10 -112 18 -23 18 -24 -2 -51 -29
-39 -36 -142 -12 -189 42 -82 103 -119 198 -119 75 0 133 31 166 90 20 36 29
100 14 100 -5 -1 -21 -20 -38 -43 l-30 -42 -3 44 c-3 36 1 48 22 70 l26 27
-25 24 c-32 30 -36 90 -6 90 10 0 30 9 45 21 57 44 19 129 -58 129 -22 0 -35
-4 -31 -10z m-80 -123 c11 -3 32 -8 48 -11 24 -6 27 -11 27 -45 0 -25 -7 -44
-20 -56 l-20 -18 20 -22 c17 -18 21 -33 18 -81 l-3 -59 -37 -6 c-26 -4 -50 0
-75 12 l-38 17 53 23 52 23 0 103 c0 57 -4 103 -9 103 -5 0 -35 -12 -67 -26
l-59 -26 20 24 c11 12 26 27 33 31 7 5 10 13 6 19 -4 6 1 8 12 5 11 -3 28 -8
39 -10z"/>
<path d="M502 545 c-56 -38 -60 -46 -37 -65 12 -10 15 -42 15 -166 0 -145 -1
-154 -21 -164 -23 -13 -20 -36 5 -32 9 2 31 -8 47 -23 33 -27 41 -25 103 20
21 16 13 37 -12 33 -15 -3 -17 9 -20 83 -2 68 1 89 13 99 12 10 18 10 30 0 12
-10 15 -37 15 -124 0 -93 -3 -116 -20 -143 -11 -18 -27 -33 -35 -33 -8 0 -15
-7 -15 -16 0 -28 85 -13 121 22 38 37 49 79 49 197 0 59 5 105 12 117 14 22 4
38 -14 22 -10 -8 -22 -3 -48 18 l-34 28 -36 -31 -35 -31 -3 112 c-2 80 -6 112
-15 112 -7 0 -36 -16 -65 -35z"/>
<path d="M1380 571 c-87 -7 -101 -14 -125 -60 l-17 -34 24 8 c12 4 55 10 94
14 l72 6 -39 -33 c-29 -25 -39 -41 -39 -63 0 -19 -5 -29 -15 -29 -24 0 -65
-46 -65 -72 0 -13 5 -30 11 -38 8 -13 12 -12 26 8 8 12 22 22 30 22 22 0 12
-99 -11 -115 -19 -14 -21 -35 -3 -35 6 0 -2 -9 -20 -21 -33 -21 -68 -67 -59
-77 3 -3 26 4 50 16 50 25 67 27 113 10 31 -11 35 -10 60 15 26 25 27 30 24
117 l-3 90 41 0 41 0 0 -69 c0 -49 -4 -72 -15 -81 -19 -16 -19 -30 -1 -30 8 0
28 -12 45 -26 l31 -26 45 37 c50 41 57 58 23 53 l-23 -3 -3 174 c-2 145 0 177
13 191 17 19 11 30 -18 30 -11 0 -28 7 -38 16 -17 15 -21 14 -59 -16 -43 -34
-55 -66 -20 -55 18 6 20 2 20 -54 l0 -61 -40 0 -40 0 0 80 c0 56 -4 80 -12 80
-9 0 -9 3 0 12 17 17 15 28 -5 26 -10 -1 -52 -4 -93 -7z"/>
<path d="M4255 571 c-91 -7 -99 -10 -121 -53 -18 -35 -11 -47 16 -30 11 7 48
12 82 12 l62 0 -31 -28 c-17 -16 -34 -42 -37 -58 -4 -17 -20 -37 -39 -49 -24
-15 -33 -29 -35 -54 -5 -45 13 -62 34 -33 8 12 19 22 25 22 16 0 11 -96 -6
-110 -18 -15 -20 -40 -2 -40 6 0 -2 -9 -19 -19 -39 -24 -80 -74 -64 -79 6 -2
31 6 55 19 41 22 48 22 91 11 47 -13 48 -12 77 17 29 28 30 32 28 115 l-2 86
40 0 41 0 0 -70 c0 -59 -3 -72 -20 -82 -24 -16 -26 -28 -3 -28 9 0 29 -12 44
-26 30 -28 35 -27 88 18 34 29 41 50 14 46 -17 -3 -18 12 -21 176 -1 113 1
183 8 190 16 16 12 29 -9 23 -12 -3 -27 3 -37 14 -23 25 -27 24 -69 -12 -38
-34 -46 -58 -17 -55 14 1 18 -9 20 -56 l3 -58 -41 0 -40 0 0 80 c0 50 -4 80
-11 80 -6 0 -8 9 -4 20 4 13 2 19 -7 18 -7 -1 -49 -4 -93 -7z"/>
<path d="M5518 543 c-52 -38 -55 -44 -33 -63 12 -10 15 -42 15 -165 0 -164 0
-164 -55 -170 -37 -5 -45 13 -45 100 0 64 3 84 15 89 8 3 15 13 15 22 0 12 -6
15 -25 10 -18 -5 -37 1 -66 21 l-41 27 -57 -29 c-48 -26 -56 -34 -59 -62 -2
-23 3 -37 17 -50 l21 -17 -31 -32 c-46 -47 -41 -112 11 -139 39 -20 52 -19 84
6 l27 21 23 -21 c29 -27 34 -27 82 7 49 34 72 34 113 -1 34 -28 36 -28 88 11
33 25 35 45 5 40 -15 -3 -17 18 -20 215 -3 248 0 243 -84 180z"/>
<path d="M2360 509 c1 -61 2 -65 35 -90 l33 -25 -39 -24 -39 -25 0 -102 0
-102 51 -35 52 -35 51 30 c28 17 61 35 74 41 20 10 22 18 22 106 0 77 3 97 17
107 20 15 8 38 -17 30 -18 -6 -45 16 -217 169 l-23 19 0 -64z"/>
<path d="M5680 505 c0 -47 4 -65 13 -65 8 0 24 -11 36 -24 l22 -24 -35 -22
-36 -22 0 -106 0 -107 46 -30 c25 -16 50 -29 57 -27 7 2 40 19 73 39 l61 36 6
91 c4 50 9 103 13 118 5 23 3 26 -12 22 -13 -4 -51 24 -127 91 -60 52 -110 95
-113 95 -2 0 -4 -29 -4 -65z"/>
<path d="M3010 415 c-51 -52 -53 -55 -37 -73 13 -14 17 -38 17 -98 0 -68 -3
-81 -20 -92 -25 -15 -26 -34 -2 -30 10 2 33 -9 51 -24 l32 -28 50 25 c28 14
47 30 43 36 -3 6 -12 8 -19 5 -26 -10 -35 19 -35 116 0 89 2 98 18 98 18 0 52
29 52 43 0 4 -16 7 -35 7 -33 0 -35 2 -35 35 0 49 -16 45 -80 -20z"/>
<path d="M3790 414 c-49 -49 -53 -56 -37 -65 14 -8 17 -25 17 -99 0 -79 -2
-91 -20 -100 -25 -13 -26 -34 -2 -28 10 3 32 -7 51 -23 l34 -28 49 25 c27 14
46 29 42 35 -3 6 -12 8 -19 5 -26 -10 -35 19 -35 116 0 93 1 98 21 98 20 0 48
25 49 43 0 4 -16 7 -35 7 -33 0 -35 2 -35 35 0 22 -5 35 -13 35 -7 0 -37 -25
-67 -56z"/>
<path d="M878 377 l-78 -42 0 -84 c0 -63 -4 -89 -16 -102 -21 -23 -10 -43 15
-27 16 9 26 6 59 -20 22 -18 45 -32 51 -32 14 0 141 100 141 111 0 19 -19 16
-52 -7 l-36 -26 -36 24 c-20 13 -36 28 -36 33 0 6 32 29 70 53 39 24 70 48 70
53 0 11 -63 109 -70 108 -3 -1 -40 -20 -82 -42z"/>
<path d="M1838 378 l-78 -42 0 -85 c0 -63 -4 -89 -16 -102 -20 -22 -9 -46 12
-28 12 10 23 6 58 -20 25 -17 49 -31 54 -31 6 0 29 16 52 35 24 20 54 45 68
56 18 14 22 23 15 30 -8 8 -21 4 -47 -16 l-35 -27 -36 22 c-19 12 -35 28 -35
35 0 7 26 30 58 49 31 20 63 40 71 45 12 8 8 19 -22 65 -21 31 -38 56 -40 56
-1 0 -37 -19 -79 -42z"/>
<path d="M3503 389 c-45 -32 -57 -55 -24 -46 26 7 31 -9 31 -106 0 -72 -3 -84
-20 -95 -23 -14 -17 -37 7 -28 8 3 30 -6 49 -20 l35 -27 49 34 c58 40 65 60
18 57 l-33 -3 -3 85 -3 85 45 -3 c41 -4 46 -2 60 27 28 53 13 94 -22 59 -8 -8
-15 -8 -27 2 -13 11 -20 9 -44 -14 l-29 -28 -17 26 c-10 14 -20 26 -24 26 -3
-1 -25 -14 -48 -31z"/>
<path d="M4708 376 l-78 -41 0 -84 c0 -63 -4 -89 -16 -102 -21 -24 -10 -43 17
-28 16 8 28 4 61 -20 23 -17 46 -31 51 -31 16 0 137 103 137 117 0 20 -15 16
-48 -12 -17 -14 -34 -25 -38 -25 -13 1 -80 58 -74 63 3 2 35 23 73 47 37 23
67 46 67 51 0 13 -61 109 -68 108 -4 -1 -42 -20 -84 -43z"/>
<path d="M4933 389 c-48 -34 -53 -46 -20 -51 21 -3 22 -8 25 -92 3 -80 1 -90
-18 -103 -22 -16 -17 -38 7 -29 8 4 28 -5 45 -19 16 -14 33 -25 37 -25 14 0
101 70 101 81 0 6 -14 7 -35 3 l-35 -6 0 90 0 89 25 -5 c39 -7 71 5 83 33 24
52 7 86 -26 53 -10 -10 -17 -10 -31 -1 -16 10 -23 8 -42 -13 l-23 -24 -25 24
-26 24 -42 -29z"/>
<path d="M2100 384 c-25 -14 -48 -31 -52 -37 -15 -23 -8 -56 15 -73 l22 -17
-32 -33 c-43 -42 -44 -84 -4 -125 35 -35 62 -37 101 -7 l30 22 24 -24 25 -23
51 33 c27 17 47 36 44 42 -3 5 -13 7 -21 4 -31 -12 -43 14 -43 94 0 65 3 80
20 95 14 13 17 22 10 29 -7 7 -14 6 -21 -1 -8 -8 -24 -4 -59 18 -26 16 -51 29
-56 29 -5 0 -29 -12 -54 -26z"/>
<path d="M2733 374 l-63 -35 0 -53 c0 -44 4 -56 23 -69 14 -11 18 -19 11 -24
-42 -32 -58 -108 -28 -137 21 -22 37 -20 31 4 -8 30 14 41 49 24 30 -14 33
-14 92 22 l62 36 0 57 c0 51 -3 59 -24 71 l-24 12 24 46 c13 25 24 53 24 63 0
21 -20 25 -38 7 -9 -9 -18 -9 -37 0 -34 16 -31 17 -102 -24z"/>
<path d="M3240 384 c-25 -14 -48 -31 -52 -37 -15 -23 -8 -56 15 -73 l22 -17
-32 -33 c-45 -44 -46 -92 -2 -128 37 -32 52 -32 96 -5 l34 21 24 -22 24 -23
45 29 c44 28 65 63 30 50 -32 -12 -44 13 -44 94 0 65 3 80 20 95 23 21 11 47
-13 27 -10 -8 -24 -4 -58 18 -24 17 -48 30 -54 30 -5 0 -30 -12 -55 -26z"/>
</g>
</svg>
